<?xml version="1.0" encoding="UTF-8" standalone="no"?>
<!-- Created with Inkscape (http://www.inkscape.org/) -->

<svg
   xmlns:dc="http://purl.org/dc/elements/1.1/"
   xmlns:cc="http://creativecommons.org/ns#"
   xmlns:rdf="http://www.w3.org/1999/02/22-rdf-syntax-ns#"
   xmlns:svg="http://www.w3.org/2000/svg"
   xmlns="http://www.w3.org/2000/svg"
   xmlns:xlink="http://www.w3.org/1999/xlink"
   xmlns:sodipodi="http://sodipodi.sourceforge.net/DTD/sodipodi-0.dtd"
   xmlns:inkscape="http://www.inkscape.org/namespaces/inkscape"
   width="240px"
   height="240px"
   viewBox="0 0 240 240"
   version="1.1"
   id="SVGRoot"
   inkscape:version="0.92.5 (2060ec1f9f, 2020-04-08)"
   sodipodi:docname="cct.svg"
   inkscape:export-filename="C:\Users\Manolo\Desktop\cryptocans\react\src\img\assets\icons\logoCCT.png"
   inkscape:export-xdpi="44.93"
   inkscape:export-ydpi="44.93">
  <defs
     id="defs1687">
    <clipPath
       clipPathUnits="userSpaceOnUse"
       id="clipPath1051-7">
      <circle
         style="opacity:1;fill:#eac900;fill-opacity:1;stroke:#000000;stroke-width:2.8372283;stroke-linecap:square;stroke-linejoin:miter;stroke-miterlimit:4;stroke-dasharray:none;stroke-dashoffset:0;stroke-opacity:1;paint-order:markers fill stroke"
         id="circle1053-4"
         cx="90.296303"
         cy="200.18042"
         r="28.612663" />
    </clipPath>
    <linearGradient
       id="linearGradient1625"
       inkscape:collect="always">
      <stop
         id="stop1621"
         offset="0"
         style="stop-color:#3af0fa;stop-opacity:1" />
      <stop
         id="stop1623"
         offset="1"
         style="stop-color:#39f1f1;stop-opacity:1" />
    </linearGradient>
    <linearGradient
       xlink:href="#paint0_linear_0_1"
       gradientTransform="translate(-2118.5248,-2968.8978)"
       id="paint1_linear_0_1"
       x1="351.26013"
       y1="2760.208"
       x2="958.47772"
       y2="3521.4976"
       gradientUnits="userSpaceOnUse">
      <stop
         stop-color="#FFA415"
         id="stop845" />
      <stop
         offset="0.50290996"
         stop-color="#FF8915"
         id="stop847" />
      <stop
         offset="1"
         stop-color="#FF5915"
         id="stop849" />
    </linearGradient>
    <linearGradient
       gradientTransform="matrix(0.26458333,0,0,0.26458333,-76.131465,-718.19753)"
       id="paint0_linear_0_1"
       x1="811"
       y1="-72"
       x2="811"
       y2="7056"
       gradientUnits="userSpaceOnUse">
      <stop
         stop-color="#2A2D32"
         id="stop840" />
      <stop
         offset="0.991706"
         stop-color="#131313"
         id="stop842" />
    </linearGradient>
    <linearGradient
       inkscape:collect="always"
       xlink:href="#linearGradient1625"
       id="linearGradient1198-2-5"
       x1="84.327225"
       y1="194.58382"
       x2="4.879447"
       y2="192.69394"
       gradientUnits="userSpaceOnUse"
       gradientTransform="matrix(3.7795276,0,0,3.7795276,381.42857,-7.8571849)" />
    <clipPath
       clipPathUnits="userSpaceOnUse"
       id="clipPath1051-7-4">
      <circle
         style="opacity:1;fill:#eac900;fill-opacity:1;stroke:#000000;stroke-width:2.8372283;stroke-linecap:square;stroke-linejoin:miter;stroke-miterlimit:4;stroke-dasharray:none;stroke-dashoffset:0;stroke-opacity:1;paint-order:markers fill stroke"
         id="circle1053-4-6"
         cx="90.296303"
         cy="200.18042"
         r="28.612663" />
    </clipPath>
    <filter
       inkscape:collect="always"
       style="color-interpolation-filters:sRGB"
       id="filter1503-3"
       x="-0.0288"
       width="1.0576"
       y="-0.0288"
       height="1.0576">
      <feGaussianBlur
         inkscape:collect="always"
         stdDeviation="0.68035716"
         id="feGaussianBlur1505-6" />
    </filter>
  </defs>
  <sodipodi:namedview
     id="base"
     pagecolor="#ffffff"
     bordercolor="#666666"
     borderopacity="1.0"
     inkscape:pageopacity="0.0"
     inkscape:pageshadow="2"
     inkscape:zoom="0.7"
     inkscape:cx="274.50862"
     inkscape:cy="101.2029"
     inkscape:document-units="px"
     inkscape:current-layer="layer1"
     showgrid="false"
     inkscape:window-width="1366"
     inkscape:window-height="705"
     inkscape:window-x="-8"
     inkscape:window-y="-8"
     inkscape:window-maximized="1" />
  <metadata
     id="metadata1690">
    <rdf:RDF>
      <cc:Work
         rdf:about="">
        <dc:format>image/svg+xml</dc:format>
        <dc:type
           rdf:resource="http://purl.org/dc/dcmitype/StillImage" />
        <dc:title></dc:title>
      </cc:Work>
    </rdf:RDF>
  </metadata>
  <g
     inkscape:label="Layer 1"
     inkscape:groupmode="layer"
     id="layer1">
    <g
       id="g2647"
       inkscape:export-xdpi="44.93"
       inkscape:export-ydpi="44.93"
       transform="translate(-381.42857,7.8571429)">
      <circle
         transform="matrix(3.7497953,0,0,3.7497953,487.30172,-562.52357)"
         r="28.348215"
         cy="181.30141"
         cx="3.2127976"
         id="path1493-1"
         style="opacity:1;fill:#000000;fill-opacity:1;stroke:#000000;stroke-width:2.83700013;stroke-linecap:square;stroke-linejoin:miter;stroke-miterlimit:4;stroke-dasharray:none;stroke-dashoffset:0;stroke-opacity:1;paint-order:markers fill stroke;filter:url(#filter1503-3)" />
      <image
         transform="matrix(3.8971929,0,0,3.8971929,153.24144,-669.95848)"
         clip-path="url(#clipPath1051-7-4)"
         width="192.61667"
         height="60.325001"
         preserveAspectRatio="none"
         xlink:href="file:///C:/Users/Manolo/Desktop/circuit-wallpaper-preview.jpg"
         id="image1033-8-5"
         x="58.661907"
         y="169.31964"
         sodipodi:absref="C:\Users\Manolo\Desktop\circuit-wallpaper-preview.jpg" />
      <ellipse
         ry="111.55371"
         rx="111.43719"
         cy="110.24581"
         cx="505.10217"
         id="path968-7-2-0"
         style="opacity:1;fill:none;fill-opacity:0.80402012;stroke:url(#linearGradient1198-2-5);stroke-width:11.05633545;stroke-linecap:square;stroke-linejoin:miter;stroke-miterlimit:4;stroke-dasharray:none;stroke-dashoffset:0;stroke-opacity:1;paint-order:markers fill stroke" />
      <g
         transform="matrix(0.87455614,0,0,0.87455614,97.746165,-7.2859997)"
         id="g2616">
        <text
           xml:space="preserve"
           style="font-style:normal;font-variant:normal;font-weight:normal;font-stretch:normal;font-size:73.50229645px;line-height:1.25;font-family:Arial;-inkscape-font-specification:Arial;letter-spacing:0px;word-spacing:0px;fill:#000000;fill-opacity:1;stroke:none;stroke-width:6.12519169"
           x="384.50525"
           y="214.2189"
           id="text966-1-8-4"><tspan
             sodipodi:role="line"
             id="tspan964-4-1-8"
             x="384.50525"
             y="214.2189"
             style="font-style:normal;font-variant:normal;font-weight:normal;font-stretch:normal;font-family:Audiowide;-inkscape-font-specification:Audiowide;fill:#000000;fill-opacity:1;stroke-width:6.12519169">CCT</tspan></text>
        <text
           xml:space="preserve"
           style="font-style:normal;font-variant:normal;font-weight:normal;font-stretch:normal;font-size:73.50229645px;line-height:1.25;font-family:Arial;-inkscape-font-specification:Arial;letter-spacing:0px;word-spacing:0px;fill:#39f1f1;fill-opacity:1;stroke:none;stroke-width:6.12519169"
           x="385.89169"
           y="209.31648"
           id="text966-1-8-0-0"><tspan
             sodipodi:role="line"
             id="tspan964-4-1-6-9"
             x="385.89169"
             y="209.31648"
             style="font-style:normal;font-variant:normal;font-weight:normal;font-stretch:normal;font-family:Audiowide;-inkscape-font-specification:Audiowide;fill:#39f1f1;fill-opacity:1;stroke-width:6.12519169">CCT</tspan></text>
      </g>
      <g
         transform="matrix(0.13155434,0,0,0.13155434,373.63611,65.067874)"
         id="g2610">
        <path
           style="fill:#000000;fill-opacity:1;stroke-width:13.52264404"
           inkscape:connector-curvature="0"
           d="m 1335.3207,207.3189 c -1.4618,-21.88088 -0.5213,-43.96977 -0.5213,-65.9549 0.051,-128.413941 -0.1023,-256.88048 0.5724,-385.34606 0.1022,-15.71873 -5.3266,-24.70065 -18.6426,-31.9076 -21.724,-11.90626 -42.5612,-25.48395 -64.024,-37.8606 -11.4889,-6.57985 -22.1952,-14.98783 -36.4521,-18.95625 -29.1911,30.6015 -65.0682,51.75145 -100.1608,71.12594 -4.2318,19.37398 2.7139,33.83952 11.175,49.55851 17.2862,-7.36316 36.6075,-12.11488 51.3352,-22.97758 12.2186,-9.03458 25.9011,-16.71115 36.7638,-27.72981 5.9527,-6.05807 12.0633,-6.00541 19.1128,-1.62027 15.5618,9.66141 31.3862,18.85219 48.149,28.82678 v 34.46637 c -0.1533,129.875759 -0.6798,259.699789 0,389.57548 0.051,17.8596 -5.7973,30.75853 -17.6516,43.03035 -29.4006,30.60165 -62.5096,56.86974 -94.9394,83.97295 -8.6682,7.2064 -17.7027,16.24097 -30.6017,18.95744 -19.374,-26.37337 -32.0639,-53.3713 -17.0766,-86.16605 7.1548,-0.40886 13.9958,0.78197 20.941,2.56059 12.3761,3.13299 23.3431,1.62014 32.2208,-9.45215 5.5872,-6.94523 13.1074,-12.32448 19.2181,-17.8591 9.6606,3.81277 13.1074,13.05431 21.9324,16.08358 11.6458,-5.79733 22.7697,-11.85377 16.3463,-28.51231 -5.2755,-2.77011 -8.7734,4.38517 -14.4138,2.08527 -5.7447,-5.11708 -13.7336,-9.66069 -14.5692,-19.06018 -1.6713,-18.06915 6.9979,-34.04895 8.6165,-53.6851 8.5122,9.34837 0.9404,19.68778 8.3027,26.16383 18.7479,-14.20428 21.7771,-31.22928 6.3191,-46.11228 -23.1346,-22.298931 -40.2633,-49.453771 -62.457,-72.431451 -5.0649,-5.275 -8.043,-10.81012 -4.3851,-20.3149 9.2957,-24.2298397 7.5202,-48.56549 -7.8335,-70.49903 -9.1389,-12.95056 -10.4447,-26.9468 -9.3995,-42.19484 2.0392,-29.975419 1.5639,-59.533349 -18.4341,-85.018059 -5.1186,-6.58035 -7.7298,-15.09138 -11.4888,-22.71706 -13.3171,-27.05056 -22.299,-55.04088 -19.3229,-85.8001 0.6235,-7.10214 1.2522,-14.67391 -2.6628,-23.60418 -19.9995,20.31425 -28.3554,42.56118 -27.625,68.14944 0.9404,30.49795 1.3084,60.73463 -13.2644,88.88217 -0.2556,0.52128 0.1022,1.35951 0.1533,2.45321 6.5798,6.31908 15.667,8.87761 23.3953,13.68174 10.0271,6.26668 11.9069,8.19911 16.084,19.94917 -41.3064,-39.68898 -90.70865,-25.53635 -141.67683,-25.37939 -5.84996,-7.1548 -13.78774,-18.01649 -22.92657,-27.83512 -9.24259,-9.92193 -13.0032,-20.41755 -12.37558,-34.36131 1.77349,-36.08563 -6.42341,-70.34314 -23.49952,-102.25048 -4.85537,-8.98242 -8.98345,-19.11347 -18.90478,-24.12671 -1.82971,1.51294 -3.24031,2.19269 -3.86386,3.29143 -0.99151,1.82964 -1.93193,3.86386 -2.24369,5.90111 -8.56386,54.88517 -31.54154,103.86924 -61.09953,150.08567 -5.53462,8.66925 -8.92878,17.23319 -8.7734,27.72931 0.45998,29.8192 0.45998,59.637899 0,89.403899 -0.20433,9.87023 3.13299,17.28616 9.03457,25.06702 14.98829,19.6872803 32.48247,37.49526 45.38191,58.5405 -1.09884,4.54362 -1.35951,8.93082 -3.13299,12.63828 -8.40695,18.12077 -10.60055,36.45058 -4.07341,55.616021 4.96271,14.77925 1.41063,28.6181 -3.13298,43.18729 -11.75001,37.75693 -25.79738,74.83461 -36.60699,112.95595 -3.08187,10.86275 -5.84893,22.87393 -13.83933,33.68352 -26.05804,-21.25477 -50.0809,-43.08301 -73.16287,-66.11333 -10.9665,-10.86121 -15.03988,-22.14204 -14.98775,-37.54687 0.5213,-119.222451 0.25555,-238.446441 0.20433,-357.6158 -0.0511,-23.34316 0,-46.68707 0,-68.51552 12.53351,-10.80954 25.53671,-16.39723 37.49576,-23.76063 18.9564,-11.75006 18.69523,-11.07132 36.76388,1.3595 13.6293,9.29585 25.85002,21.72465 44.17984,24.5447 5.64039,-15.40582 13.94308,-28.72223 15.77126,-45.7468 -24.38778,-16.50153 -47.99155,-34.30966 -70.39578,-55.45962 -38.95697,22.92568 -77.28786,45.48528 -116.55864,68.56767 v 16.91976 c 0,154.680939 0.0512,309.362409 -0.20433,463.99129 0,9.08721 1.98305,16.71118 7.83302,23.4484 6.05796,6.89256 11.90689,14.04736 18.1734,20.78405 44.59739,47.99207 95.14746,89.19428 149.0411,126.11504 53.73625,36.81653 110.13627,69.14259 168.93791,96.03626 85.38215,-39.94952 164.18535,-88.3065 236.56575,-147.26555 32.4809,-26.4245 62.9788,-54.9368 91.3357,-85.7996 11.1239,-12.11646 17.1293,-24.75323 16.0325,-41.83136 z M 870.75421,-4.3872007 c -10.75746,-12.5856403 -18.9564,-23.2914803 -28.30429,-32.7967703 -10.86276,-10.96549 -11.22818,-21.82825 -2.92345,-33.99581 1.98305,-2.87235 3.6032,-6.00533 4.96271,-8.19891 1.82971,-6.89353 -3.91496,-10.60017 -4.59471,-17.44155 10.18249,1.88079 13.05481,9.92193 16.86655,15.56228 0.62863,9.76436 -8.40695,14.15106 -9.18995,24.43935 3.76164,5.4835 9.29524,11.38458 17.28463,16.29362 10.86275,-10.96701 16.97235,-24.43991 25.06703,-36.50321 -1.98305,-12.32457 -11.01967,-20.10546 -16.97237,-29.453709 -7.93777,-12.58576 -17.0766,-24.38672 -25.5362,-36.60691 -14.15266,-20.36665 -13.52554,-24.38848 6.00533,-41.83003 6.37076,7.31025 -4.70204,12.48146 -2.7139,18.22611 22.35059,28.4597 44.12719,56.13786 66.58304,84.807169 -13.42128,26.11062 -27.41752,51.80525 -46.53034,77.4983703 z M 1135.4152,-19.740911 c 6.3176,1.98302 10.7048,4.02228 14.1,10.1313703 -0.6798,7.41544 -6.9463,13.73357 -9.8186,22.8734297 -9.0346,-5.1186097 -12.2192,-13.47392971 -17.024,-19.7404397 2.351,-7.2063903 7.1538,-10.0782103 12.7426,-13.2643603 z m -106.5853,30.07982 c -32.06385,9.29521 -47.57455,5.37922 -60.52505,-15.3010797 28.199,-19.2181003 44.54525,-15.0925703 60.52505,15.3010797 z m 41.7783,208.886911 c -14.8846,0.99151 -26.5288,-2.50435 -37.3916,-14.36119 -19.6351,-21.35751 -41.09845,-40.99366 -62.45705,-60.62881 -9.1388,-8.35533 -13.6824,-17.3899 -12.32494,-29.767 0.67975,-6.26651 -0.20443,-12.74102 -0.15334,-19.060181 0.15334,-27.52127 16.86858,-44.12719 44.59793,-44.54524 29.627,-0.45998 55.8946,9.46847 78.8033,29.76599 10.0256,8.87769 20.7841,17.07663 30.4974,26.319211 9.2431,8.66965 20.8357,14.67499 27.9378,24.28402 1.8297,6.94523 -1.7224,11.95802 -2.5606,17.96336 5.4309,10.28828 15.4054,15.72016 24.4926,21.46484 7.3102,-0.40886 12.6894,-3.70542 18.3814,-6.78985 0.9404,0.5213 2.6117,0.78196 3.133,1.72238 12.4283,22.24631 10.1825,29.55645 -8.2004,47.26068 -11.9054,11.48884 -22.9762,15.666 -39.4794,10.60004 -21.0978,-6.42289 -43.3441,-5.74414 -65.2766,-4.23183 z"
           id="path836-4" />
        <path
           style="fill:#39f1f1;fill-opacity:1;stroke-width:13.52264404"
           inkscape:connector-curvature="0"
           d="m 1355.2532,176.89186 c -1.4618,-21.88088 -0.5213,-43.96977 -0.5213,-65.9549 0.051,-128.413937 -0.1023,-256.88048 0.5724,-385.34606 0.1022,-15.71873 -5.3266,-24.70065 -18.6426,-31.9076 -21.724,-11.90626 -42.5612,-25.48395 -64.024,-37.8606 -11.4889,-6.57985 -22.1952,-14.98783 -36.4521,-18.95625 -29.1911,30.6015 -65.0682,51.75145 -100.1608,71.12594 -4.2318,19.37398 2.7139,33.83952 11.175,49.55851 17.2862,-7.36316 36.6075,-12.11488 51.3352,-22.97758 12.2186,-9.03458 25.9011,-16.71115 36.7638,-27.72981 5.9527,-6.05807 12.0633,-6.00541 19.1128,-1.62027 15.5618,9.66141 31.3862,18.85219 48.149,28.82678 v 34.46637 c -0.1533,129.87576 -0.6798,259.699793 0,389.57548 0.051,17.8596 -5.7973,30.75853 -17.6516,43.03035 -29.4006,30.60165 -62.5096,56.86974 -94.9394,83.97295 -8.6682,7.2064 -17.7027,16.24097 -30.6017,18.95744 -19.374,-26.37337 -32.0639,-53.3713 -17.0766,-86.16605 7.1548,-0.40886 13.9958,0.78197 20.941,2.56059 12.3761,3.13299 23.3431,1.62014 32.2208,-9.45215 5.5872,-6.94523 13.1074,-12.32448 19.2181,-17.8591 9.6606,3.81277 13.1074,13.05431 21.9324,16.08358 11.6458,-5.79733 22.7697,-11.85377 16.3463,-28.51231 -5.2755,-2.77011 -8.7734,4.38517 -14.4138,2.08527 -5.7447,-5.11708 -13.7336,-9.66069 -14.5692,-19.06018 -1.6713,-18.06915 6.9979,-34.04895 8.6165,-53.6851 8.5122,9.34837 0.9404,19.68778 8.3027,26.16383 18.7479,-14.20428 21.7771,-31.22928 6.3191,-46.11228 -23.1346,-22.298927 -40.2633,-49.453767 -62.457,-72.431447 -5.0649,-5.275 -8.043,-10.81012 -4.3851,-20.3149 9.2957,-24.22984 7.5202,-48.565493 -7.8335,-70.499033 -9.1389,-12.95056 -10.4447,-26.9468 -9.3995,-42.19484 2.0392,-29.97542 1.5639,-59.53335 -18.4341,-85.01806 -5.1186,-6.58035 -7.7298,-15.09138 -11.4888,-22.71706 -13.3171,-27.05056 -22.299,-55.04088 -19.3229,-85.8001 0.6235,-7.10214 1.2522,-14.67391 -2.6628,-23.60418 -19.9995,20.31425 -28.3554,42.56118 -27.625,68.14944 0.9404,30.49795 1.3084,60.73463 -13.2644,88.88217 -0.2556,0.52128 0.1022,1.35951 0.1533,2.45321 6.5798,6.31908 15.667,8.87761 23.3953,13.68174 10.0271,6.26668 11.9069,8.19911 16.084,19.94917 -41.3064,-39.68898 -90.7086,-25.53635 -141.67678,-25.37939 -5.84996,-7.1548 -13.78774,-18.01649 -22.92657,-27.83512 -9.24259,-9.92193 -13.0032,-20.41755 -12.37558,-34.36131 1.77349,-36.08563 -6.42341,-70.34314 -23.49952,-102.25048 -4.85537,-8.98242 -8.98345,-19.11347 -18.90478,-24.12671 -1.82971,1.51294 -3.24031,2.19269 -3.86386,3.29143 -0.99151,1.82964 -1.93193,3.86386 -2.24369,5.90111 -8.56386,54.88517 -31.54154,103.86924 -61.09953,150.08567 -5.53462,8.66925 -8.92878,17.23319 -8.7734,27.72931 0.45998,29.8192 0.45998,59.6379 0,89.4039 -0.20433,9.87023 3.13299,17.28616 9.03457,25.06702 14.98829,19.687283 32.48247,37.495263 45.38191,58.540503 -1.09884,4.54362 -1.35951,8.93082 -3.13299,12.63828 -8.40695,18.12077 -10.60055,36.45058 -4.07341,55.61602 4.96271,14.779247 1.41063,28.618097 -3.13298,43.187287 -11.75001,37.75693 -25.79738,74.83461 -36.60699,112.95595 -3.08187,10.86275 -5.84893,22.87393 -13.83933,33.68352 -26.05804,-21.25477 -50.0809,-43.08301 -73.16287,-66.11333 -10.9665,-10.86121 -15.03988,-22.14204 -14.98775,-37.54687 0.5213,-119.222447 0.25555,-238.44644 0.20433,-357.6158 -0.0511,-23.34316 0,-46.68707 0,-68.51552 12.53351,-10.80954 25.53671,-16.39723 37.49576,-23.76063 18.9564,-11.75006 18.69523,-11.07132 36.76388,1.3595 13.6293,9.29585 25.85002,21.72465 44.17984,24.5447 5.64039,-15.40582 13.94308,-28.72223 15.77126,-45.7468 -24.38778,-16.50153 -47.99155,-34.30966 -70.39578,-55.45962 -38.95697,22.92568 -77.28786,45.48528 -116.55864,68.56767 v 16.91976 c 0,154.68094 0.0512,309.362413 -0.20433,463.99129 0,9.08721 1.98305,16.71118 7.83302,23.4484 6.05796,6.89256 11.90689,14.04736 18.1734,20.78405 44.59739,47.99207 95.14746,89.19428 149.0411,126.11504 53.73625,36.81653 110.13627,69.14259 168.93791,96.03626 85.3821,-39.94952 164.1853,-88.3065 236.5657,-147.26555 32.4809,-26.4245 62.9788,-54.9368 91.3357,-85.7996 11.1239,-12.11646 17.1293,-24.75323 16.0325,-41.83136 z M 890.68676,-34.814237 c -10.75746,-12.58564 -18.9564,-23.291483 -28.30429,-32.796773 -10.86276,-10.96549 -11.22818,-21.82825 -2.92345,-33.99581 1.98305,-2.87235 3.6032,-6.00533 4.96271,-8.19891 1.82971,-6.89353 -3.91496,-10.60017 -4.59471,-17.44155 10.18249,1.88079 13.05481,9.92193 16.86655,15.56228 0.62863,9.76436 -8.40695,14.15106 -9.18995,24.43935 3.76164,5.4835 9.29524,11.38458 17.28463,16.29362 10.86275,-10.96701 16.97235,-24.43991 25.06703,-36.50321 -1.98305,-12.32457 -11.01967,-20.10546 -16.97237,-29.45371 -7.93777,-12.58576 -17.0766,-24.38672 -25.5362,-36.60691 -14.15266,-20.36665 -13.52554,-24.38848 6.00533,-41.83003 6.37076,7.31025 -4.70204,12.48146 -2.7139,18.22611 22.35059,28.4597 44.12719,56.13786 66.58304,84.80717 -13.42128,26.11062 -27.41752,51.80525 -46.53034,77.498373 z m 264.66094,-15.35371 c 6.3176,1.98302 10.7048,4.02228 14.1,10.13137 -0.6798,7.41544 -6.9463,13.73357 -9.8186,22.87343 -9.0346,-5.11861 -12.2192,-13.47393 -17.024,-19.74044 2.351,-7.20639 7.1538,-10.07821 12.7426,-13.26436 z m -106.5853,30.07982 c -32.0638,9.29521 -47.5745,5.37922 -60.525,-15.30108 28.199,-19.218103 44.5452,-15.09257 60.525,15.30108 z m 41.7783,208.886907 c -14.8846,0.99151 -26.5288,-2.50435 -37.3916,-14.36119 -19.6351,-21.35751 -41.0984,-40.99366 -62.457,-60.62881 -9.1388,-8.35533 -13.6824,-17.3899 -12.32494,-29.766997 0.67975,-6.26651 -0.20443,-12.74102 -0.15334,-19.06018 0.15334,-27.52127 16.86858,-44.12719 44.59788,-44.54524 29.627,-0.45998 55.8946,9.46847 78.8033,29.76599 10.0256,8.87769 20.7841,17.07663 30.4974,26.31921 9.2431,8.66965 20.8357,14.674987 27.9378,24.284017 1.8297,6.94523 -1.7224,11.95802 -2.5606,17.96336 5.4309,10.28828 15.4054,15.72016 24.4926,21.46484 7.3102,-0.40886 12.6894,-3.70542 18.3814,-6.78985 0.9404,0.5213 2.6117,0.78196 3.133,1.72238 12.4283,22.24631 10.1825,29.55645 -8.2004,47.26068 -11.9054,11.48884 -22.9762,15.666 -39.4794,10.60004 -21.0978,-6.42289 -43.3441,-5.74414 -65.2766,-4.23183 z"
           id="path836" />
      </g>
    </g>
  </g>
</svg>
